<svg width="77" height="77" viewBox="0 0 77 77" fill="none" xmlns="http://www.w3.org/2000/svg">
<path d="M16.0417 67.3749C14.2771 67.3749 12.7665 66.7466 11.5099 65.49C10.2533 64.2334 9.625 62.7228 9.625 60.9583V16.0416C9.625 14.277 10.2533 12.7664 11.5099 11.5098C12.7665 10.2532 14.2771 9.62492 16.0417 9.62492H29.5167C30.2118 7.69992 31.3748 6.14922 33.0057 4.97284C34.6366 3.79645 36.4681 3.20825 38.5 3.20825C40.5319 3.20825 42.3634 3.79645 43.9943 4.97284C45.6252 6.14922 46.7882 7.69992 47.4833 9.62492H60.9583C62.7229 9.62492 64.2335 10.2532 65.4901 11.5098C66.7467 12.7664 67.375 14.277 67.375 16.0416V60.9583C67.375 62.7228 66.7467 64.2334 65.4901 65.49C64.2335 66.7466 62.7229 67.3749 60.9583 67.3749H16.0417ZM16.0417 60.9583H60.9583V16.0416H16.0417V60.9583ZM22.4583 54.5416H44.9167V48.1249H22.4583V54.5416ZM22.4583 41.7083H54.5417V35.2916H22.4583V41.7083ZM22.4583 28.8749H54.5417V22.4583H22.4583V28.8749ZM38.5 13.6353C39.1951 13.6353 39.77 13.4081 40.2245 12.9536C40.679 12.4991 40.9062 11.9242 40.9062 11.2291C40.9062 10.5339 40.679 9.95912 40.2245 9.50461C39.77 9.05009 39.1951 8.82284 38.5 8.82284C37.8049 8.82284 37.23 9.05009 36.7755 9.50461C36.321 9.95912 36.0938 10.5339 36.0938 11.2291C36.0938 11.9242 36.321 12.4991 36.7755 12.9536C37.23 13.4081 37.8049 13.6353 38.5 13.6353Z" fill="white"/>
</svg>
