<svg width="76" height="46" viewBox="0 0 76 46" fill="none" xmlns="http://www.w3.org/2000/svg">
<g clip-path="url(#clip0_58_178)">
<path fill-rule="evenodd" clip-rule="evenodd" d="M60.4669 19.624C60.6455 19.8213 60.7873 20.0557 60.884 20.3138C60.9808 20.5718 61.0305 20.8485 61.0305 21.1278C61.0305 21.4072 60.9808 21.6839 60.884 21.9419C60.7873 22.2 60.6455 22.4344 60.4669 22.6317L48.9549 35.376C48.7767 35.5738 48.565 35.7307 48.3319 35.8378C48.0988 35.9449 47.8489 36 47.5965 36C47.3441 36 47.0942 35.9449 46.8611 35.8378C46.628 35.7307 46.4163 35.5738 46.2381 35.376L40.4821 29.0038C40.1218 28.605 39.9194 28.064 39.9194 27.5C39.9194 26.936 40.1218 26.395 40.4821 25.9962C40.8424 25.5973 41.331 25.3733 41.8405 25.3733C42.35 25.3733 42.8387 25.5973 43.1989 25.9962L47.5965 30.8687L57.75 19.624C57.9283 19.4262 58.14 19.2693 58.3731 19.1622C58.6062 19.0551 58.8561 19 59.1085 19C59.3608 19 59.6107 19.0551 59.8438 19.1622C60.0769 19.2693 60.2886 19.4262 60.4669 19.624Z" fill="white"/>
<path d="M3.59064 56C3.59064 56 -0.191772 56 -0.191772 52C-0.191772 48 3.59064 36 22.5027 36C41.4147 36 45.1971 48 45.1971 52C45.1971 56 41.4147 56 41.4147 56H3.59064ZM22.5027 32C25.5121 32 28.3984 30.7357 30.5264 28.4853C32.6544 26.2348 33.8499 23.1826 33.8499 20C33.8499 16.8174 32.6544 13.7652 30.5264 11.5147C28.3984 9.26428 25.5121 8 22.5027 8C19.4932 8 16.607 9.26428 14.479 11.5147C12.351 13.7652 11.1554 16.8174 11.1554 20C11.1554 23.1826 12.351 26.2348 14.479 28.4853C16.607 30.7357 19.4932 32 22.5027 32Z" fill="white"/>
</g>
<defs>
<clipPath id="clip0_58_178">
<rect width="76" height="46" fill="white"/>
</clipPath>
</defs>
</svg>
