<svg width="50" height="47" viewBox="0 0 50 47" fill="none" xmlns="http://www.w3.org/2000/svg">
<path d="M36.6952 30.3832C39.721 26.5014 41.0762 21.6887 40.4897 16.9079C39.9033 12.1271 37.4183 7.73079 33.5321 4.59848C29.6458 1.46616 24.6448 -0.171124 19.5297 0.0141722C14.4145 0.199469 9.5624 2.19369 5.94405 5.59785C2.32569 9.00202 0.207956 13.5651 0.0145199 18.3741C-0.178916 23.1832 1.56621 27.8836 4.90077 31.5349C8.23533 35.1863 12.9134 37.5193 17.9991 38.0673C23.0847 38.6152 28.2029 37.3377 32.3297 34.4902H32.3266C32.4183 34.6077 32.5203 34.7204 32.6328 34.8281L44.6636 46.1386C45.2496 46.6899 46.0444 46.9997 46.8734 47C47.7023 47.0003 48.4974 46.691 49.0838 46.1401C49.6701 45.5892 49.9997 44.842 50 44.0626C50.0003 43.2833 49.6713 42.5358 49.0853 41.9846L37.0545 30.674C36.9429 30.5677 36.8227 30.4724 36.6952 30.3832ZM37.5014 19.0903C37.5014 21.2122 37.0568 23.3133 36.1931 25.2736C35.3294 27.234 34.0634 29.0152 32.4675 30.5156C30.8715 32.0161 28.9769 33.2062 26.8917 34.0182C24.8065 34.8303 22.5716 35.2482 20.3145 35.2482C18.0575 35.2482 15.8226 34.8303 13.7374 34.0182C11.6522 33.2062 9.75755 32.0161 8.1616 30.5156C6.56565 29.0152 5.29968 27.234 4.43596 25.2736C3.57224 23.3133 3.12769 21.2122 3.12769 19.0903C3.12769 14.8049 4.93844 10.6951 8.1616 7.66491C11.3848 4.63471 15.7563 2.93236 20.3145 2.93236C24.8728 2.93236 29.2443 4.63471 32.4675 7.66491C35.6906 10.6951 37.5014 14.8049 37.5014 19.0903Z" fill="white"/>
</svg>
